<svg xmlns="http://www.w3.org/2000/svg" viewBox="0 0 40.6 40.6"><title>img-icon-wrongxxxhdpi</title><g id="Layer_2" data-name="Layer 2"><g id="Contenido"><circle cx="20.3" cy="20.3" r="20.3" transform="translate(-2.29 2.58) rotate(-6.89)" style="fill:#fff"/><circle cx="20.3" cy="20.3" r="18.59" style="fill:red"/><path d="M1.72,20.38a18.58,18.58,0,0,0,37.17,0Z" style="fill:#c1272d;opacity:0.5"/><circle cx="20.3" cy="20.3" r="15.9" style="fill:#ed1c24"/><path d="M12.31,25.78a3.25,3.25,0,0,1-.19-1.14,2.65,2.65,0,0,1,1-2.17l3.37-2.73-2.55-2a3.21,3.21,0,0,1-.75-1,3.4,3.4,0,0,1-.32-1.33A3.12,3.12,0,0,1,13,14.23a3,3,0,0,1,1.15-1.45,3.07,3.07,0,0,1,1.74-.53,3.29,3.29,0,0,1,1.58.42,2.6,2.6,0,0,1,.91.82l2.1,2.8,2.08-2.8a2.49,2.49,0,0,1,.89-.82,3.29,3.29,0,0,1,1.58-.42,3.1,3.1,0,0,1,1.76.54A2.88,2.88,0,0,1,28,14.23a3.32,3.32,0,0,1,.17,1.17,3.36,3.36,0,0,1-.27,1.33,2.52,2.52,0,0,1-.75,1l-2.58,2,3.37,2.73a2.72,2.72,0,0,1,1,2.2,3.19,3.19,0,0,1-.23,1.2A3.11,3.11,0,0,1,28,26.92a2.9,2.9,0,0,1-2.17.94,3.29,3.29,0,0,1-2.63-1.36l-2.65-3.34L17.85,26.5a3.35,3.35,0,0,1-2.65,1.36A2.9,2.9,0,0,1,13,26.92,3.79,3.79,0,0,1,12.31,25.78Z" style="fill:#fff"/></g></g></svg>