<svg xmlns="http://www.w3.org/2000/svg" viewBox="0 0 40.6 40.6"><title>img-icon-correctxxxhdpi</title><g id="Layer_2" data-name="Layer 2"><g id="Contenido"><circle cx="20.3" cy="20.3" r="20.3" transform="translate(-2.29 2.58) rotate(-6.89)" style="fill:#fff"/><circle cx="20.3" cy="20.3" r="18.59" style="fill:#349249"/><circle cx="20.3" cy="20.3" r="15.9" style="fill:#64a42a"/><g id="_3elmwy" data-name="3elmwy"><path d="M16.9,20.37l6-6,2.83-2.83a1.36,1.36,0,0,1,2.16,0c.54.53,1.07,1.07,1.6,1.61a1.32,1.32,0,0,1,0,2.06L18,26.68a1.33,1.33,0,0,1-2.09,0L9.4,20.14a1.32,1.32,0,0,1,0-2.09L11,16.42a1.35,1.35,0,0,1,2.07,0Q14.85,18.17,16.6,20A3.35,3.35,0,0,1,16.9,20.37Z" style="fill:#fff"/></g></g></g></svg>